<?xml version="1.0" standalone="no"?><svg xmlns="http://www.w3.org/2000/svg" viewBox="0 0 1440 320"><path fill="#FBAABB" fill-opacity="1" d="M0,32L10.4,48C20.9,64,42,96,63,106.7C83.5,117,104,107,125,112C146.1,117,167,139,188,165.3C208.7,192,230,224,250,224C271.3,224,292,192,313,186.7C333.9,181,355,203,376,197.3C396.5,192,417,160,438,170.7C459.1,181,480,235,501,213.3C521.7,192,543,96,563,58.7C584.3,21,605,43,626,85.3C647,128,668,192,689,208C709.6,224,730,192,751,197.3C772.2,203,793,245,814,256C834.8,267,856,245,877,229.3C897.4,213,918,203,939,192C960,181,981,171,1002,165.3C1022.6,160,1043,160,1064,160C1085.2,160,1106,160,1127,186.7C1147.8,213,1169,267,1190,266.7C1210.4,267,1231,213,1252,176C1273,139,1294,117,1315,128C1335.7,139,1357,181,1377,176C1398.3,171,1419,117,1430,90.7L1440,64L1440,320L1429.6,320C1419.1,320,1398,320,1377,320C1356.5,320,1336,320,1315,320C1293.9,320,1273,320,1252,320C1231.3,320,1210,320,1190,320C1168.7,320,1148,320,1127,320C1106.1,320,1085,320,1064,320C1043.5,320,1023,320,1002,320C980.9,320,960,320,939,320C918.3,320,897,320,877,320C855.7,320,835,320,814,320C793,320,772,320,751,320C730.4,320,710,320,689,320C667.8,320,647,320,626,320C605.2,320,584,320,563,320C542.6,320,522,320,501,320C480,320,459,320,438,320C417.4,320,397,320,376,320C354.8,320,334,320,313,320C292.2,320,271,320,250,320C229.6,320,209,320,188,320C167,320,146,320,125,320C104.3,320,83,320,63,320C41.7,320,21,320,10,320L0,320Z"></path></svg>