<?xml version="1.0" standalone="no"?><svg xmlns="http://www.w3.org/2000/svg" viewBox="0 0 1440 320"><path fill="#FBAABB" fill-opacity="1" d="M0,224L20,224C40,224,80,224,120,234.7C160,245,200,267,240,261.3C280,256,320,224,360,202.7C400,181,440,171,480,186.7C520,203,560,245,600,272C640,299,680,309,720,272C760,235,800,149,840,101.3C880,53,920,43,960,69.3C1000,96,1040,160,1080,176C1120,192,1160,160,1200,154.7C1240,149,1280,171,1320,160C1360,149,1400,107,1420,85.3L1440,64L1440,0L1420,0C1400,0,1360,0,1320,0C1280,0,1240,0,1200,0C1160,0,1120,0,1080,0C1040,0,1000,0,960,0C920,0,880,0,840,0C800,0,760,0,720,0C680,0,640,0,600,0C560,0,520,0,480,0C440,0,400,0,360,0C320,0,280,0,240,0C200,0,160,0,120,0C80,0,40,0,20,0L0,0Z"></path></svg>